<svg xmlns="http://www.w3.org/2000/svg" viewBox="0 0 32 26"><path d="M1 .038c-.6 0-1 .5-1 1.1v23.8c0 .6.4 1.1 1 1.1h30c.6 0 1-.5 1-1.1v-23.8c0-.6-.4-1.1-1-1.1H1zm22 1c.6 0 1 .4 1 1s-.4 1-1 1-1-.4-1-1 .4-1 1-1zm3 0c.6 0 1 .4 1 1s-.4 1-1 1-1-.4-1-1 .4-1 1-1zm3 0c.6 0 1 .4 1 1s-.4 1-1 1-1-.4-1-1 .4-1 1-1zm-27.1 3H30c.5 0 .9.4.9.9v19.2c0 .5-.4.9-.9.9H1.9c-.5 0-.9-.4-.9-.9v-19.2c0-.5.4-.9.9-.9zm1.1 2v12h12v-12H3zm14 0v1h12v-1H17zm0 2v1h12v-1H17zm-11 0c.5 0 1 .4 1 1s-.4 1-1 1-1-.4-1-1 .5-1 1-1zm11 2v1h12v-1H17zm-8 .9c.1 0 .3 0 .4.2l1.8 2-3.5 3.9H4.6c-.3 0-.5-.2-.5-.5 0-.1.1-.3.2-.3l4.5-5c-.1-.2.1-.3.2-.3zm8 1.1v1h12v-1H17zm-4 0c.1 0 .3 0 .4.2l.7.8v4H8.4l4.3-4.8c0-.2.1-.2.3-.2zm4 2v1h12v-1H17zm0 2v1h7v-1h-7zm-14 4v1h26v-1H3zm0 2v1h26v-1H3z"/></svg>