<?xml version="1.0" encoding="utf-8"?>
<!-- Generator: Adobe Illustrator 22.1.0, SVG Export Plug-In . SVG Version: 6.00 Build 0)  -->
<svg version="1.1" id="Layer_1" xmlns="http://www.w3.org/2000/svg" xmlns:xlink="http://www.w3.org/1999/xlink" x="0px" y="0px"
	 viewBox="0 0 195.5 131.1" enable-background="new 0 0 195.5 131.1" xml:space="preserve">
<g>
	<path fill="#FFFFFF" d="M152.9,28.3c-3,3.8-6,7.6-9,11.4h3.9c-2.4,2.8-4.7,5.6-7.1,8.4c2.1,0.1,4.3,0.3,6.4,0.4l-9.1,9.5h7.1
		c-2.9,3.4-5.7,6.8-8.6,10.2c9.5,0.3,19,0.5,28.5,0.8c-2.8-3.5-5.5-7.1-8.3-10.6l5.2-0.3c-2.4-2.9-4.8-5.9-7.1-8.8
		c2.2,0.1,4.4,0.1,6.6,0.2c-2-3.1-4-6.3-6-9.4l3.7-0.3C157,36,154.9,32.2,152.9,28.3z"/>
</g>
<g>
	<path fill="#FFFFFF" d="M60.1,28.3c-5.2,5.9-10.5,11.9-15.7,17.8h6.8c-4.1,4.4-8.2,8.7-12.4,13.1c3.7,0.2,7.4,0.4,11.2,0.6
		L34.1,74.7h12.4c-5,5.3-10,10.6-15,15.9c16.6,0.4,33.2,0.8,49.8,1.2c-4.8-5.5-9.6-11-14.4-16.5l9-0.5c-4.1-4.6-8.3-9.2-12.4-13.7
		c3.8,0.1,7.6,0.2,11.4,0.3c-3.5-4.9-7-9.8-10.4-14.7l6.4-0.5C67.3,40.3,63.7,34.3,60.1,28.3z"/>
</g>
<g>
	<path fill="#FFFFFF" d="M127.3,8.8c5.6,8,11.3,15.9,16.9,23.9h-7.3c4.4,5.9,8.9,11.7,13.3,17.6c-4,0.3-8,0.6-12,0.8l17,19.9h-13.4
		c5.4,7.1,10.8,14.2,16.2,21.4c-17.8,0.6-35.6,1.1-53.4,1.7c5.2-7.4,10.3-14.8,15.5-22.2l-9.7-0.6c4.5-6.2,8.9-12.3,13.4-18.5
		c-4.1,0.1-8.2,0.3-12.3,0.4c3.7-6.6,7.5-13.1,11.2-19.7l-6.9-0.6C119.6,24.9,123.5,16.8,127.3,8.8z"/>
</g>
<g>
	<path fill="#FFFFFF" d="M100.6,0C94.1,9.6,87.6,19.2,81,28.8h8.5C84.4,35.9,79.2,43,74.1,50.1c4.6,0.3,9.3,0.7,13.9,1l-19.8,24
		h15.5c-6.2,8.6-12.5,17.2-18.8,25.8c20.7,0.7,41.3,1.3,62,2c-6-8.9-12-17.8-18-26.8l11.2-0.8c-5.2-7.4-10.3-14.8-15.5-22.2
		c4.8,0.2,9.5,0.3,14.2,0.5c-4.3-7.9-8.7-15.8-13-23.8l8-0.8C109.6,19.4,105.1,9.7,100.6,0z"/>
</g>
<g>
	<path fill="#FFFFFF" d="M6.5,91.9c0,14.6,84.5,26.5,189,26.5"/>
	<path fill="#FFFFFF" d="M6.5,91.9c0.1,1,0.6,1.9,1.2,2.7c0.6,0.7,1.4,1.3,2.3,1.9c1.7,1.1,3.5,1.9,5.3,2.6
		c3.7,1.4,7.6,2.4,11.5,3.3c3.9,0.9,7.9,1.7,11.8,2.3c4,0.7,7.9,1.3,11.9,1.9c8,1.1,16,2.1,24,2.9c8,0.8,16,1.6,24.1,2.2
		c16.1,1.3,32.2,2.5,48.3,3.5c16.1,1,32.3,2,48.5,3.2c-16.2,1.2-32.4,1.6-48.7,1.5c-16.2-0.2-32.5-0.8-48.7-2.2
		c-8.1-0.7-16.2-1.5-24.3-2.6c-8.1-1.1-16.1-2.3-24.1-3.9c-8-1.6-16-3.5-23.8-6c-3.9-1.3-7.7-2.7-11.4-4.6c-1.8-1-3.6-2-5.2-3.4
		c-0.8-0.7-1.5-1.4-2.1-2.3C6.8,93.9,6.4,92.9,6.5,91.9z"/>
</g>
<g>
	<path fill="#FFFFFF" d="M0,94.1c0,19.8,84.3,35.8,188.5,35.8"/>
	<path fill="#FFFFFF" d="M0,94.1c0.2,2.1,1.3,3.9,2.6,5.3c1.4,1.4,3,2.6,4.7,3.6c3.5,2,7.2,3.6,11,4.9c7.6,2.7,15.6,4.6,23.6,6.2
		c8,1.6,16,3.1,24.1,4.2c8.1,1.2,16.2,2.3,24.3,3.2c16.3,1.9,32.6,3.4,48.9,4.7l49.2,3.6c-16.4,1.2-32.9,1.5-49.4,1.1
		c-16.5-0.4-33-1.5-49.4-3.4c-8.2-1-16.4-2.1-24.5-3.6c-8.1-1.5-16.3-3.1-24.3-5.3c-8-2.1-16-4.7-23.6-8.1
		c-3.8-1.8-7.5-3.7-10.9-6.3c-1.7-1.3-3.2-2.7-4.5-4.4C0.7,98.2-0.1,96.2,0,94.1z"/>
</g>
</svg>
