<?xml version="1.0" encoding="utf-8"?>
<!-- Generator: Adobe Illustrator 22.1.0, SVG Export Plug-In . SVG Version: 6.00 Build 0)  -->
<svg version="1.1" id="Layer_1" xmlns="http://www.w3.org/2000/svg" xmlns:xlink="http://www.w3.org/1999/xlink" x="0px" y="0px"
	 viewBox="0 0 143.2 108.4" enable-background="new 0 0 143.2 108.4" xml:space="preserve">
<text transform="matrix(1 0 0 1 -0.394 90.3884)" fill="#63694A" font-family="'MyriadPro-Bold'" font-size="19.2386px" letter-spacing="1">Keeping Forests</text>
<path fill="#596357" d="M96.9,14.7c-1.6,2-3.1,4-4.7,5.9h2c-1.2,1.5-2.5,2.9-3.7,4.4l3.3,0.2l-4.7,4.9h3.7l-4.5,5.3
	c4.9,0.1,9.9,0.3,14.8,0.4l-4.3-5.5l2.7-0.2l-3.7-4.6l3.4,0.1c-1-1.6-2.1-3.3-3.1-4.9l1.9-0.2L96.9,14.7z"/>
<path fill="#77773F" d="M48.6,14.7c-2.7,3.1-5.5,6.2-8.2,9.3H44l-6.4,6.8c1.9,0.1,3.9,0.2,5.8,0.3l-8.2,7.7h6.5
	c-2.6,2.8-5.2,5.5-7.8,8.3c8.6,0.2,17.2,0.4,25.9,0.6c-2.5-2.9-5-5.7-7.5-8.6l4.7-0.2l-6.5-7.1c2,0.1,4,0.1,5.9,0.2
	c-1.8-2.5-3.6-5.1-5.4-7.6l3.3-0.2C52.3,21,50.5,17.8,48.6,14.7z"/>
<path fill="#504D45" d="M83.6,4.6c2.9,4.1,5.9,8.3,8.8,12.4h-3.8l6.9,9.2c-2.1,0.1-4.2,0.3-6.2,0.4l8.9,10.4h-6.9
	c2.8,3.7,5.6,7.4,8.4,11.1c-9.3,0.3-18.5,0.6-27.8,0.9c2.7-3.8,5.4-7.7,8.1-11.5l-5-0.3l6.9-9.6c-2.1,0.1-4.3,0.1-6.4,0.2
	c1.9-3.4,3.9-6.8,5.8-10.2l-3.6-0.3C79.6,12.9,81.6,8.7,83.6,4.6z"/>
<path fill="#63694A" d="M69.7,0c-3.4,5-6.8,10-10.2,15h4.4l-8,11c2.4,0.2,4.8,0.3,7.2,0.5L52.9,39h8.1c-3.2,4.5-6.5,8.9-9.7,13.4
	c10.7,0.3,21.5,0.7,32.2,1c-3.1-4.6-6.2-9.3-9.4-13.9l5.8-0.4c-2.7-3.9-5.4-7.7-8.1-11.6c2.5,0.1,4.9,0.2,7.4,0.3
	c-2.3-4.1-4.5-8.2-6.8-12.3l4.2-0.4C74.3,10.1,72,5,69.7,0z"/>
<g>
	<path fill="#596357" d="M20.8,47.8c0.1,1.1,1,1.8,1.9,2.3c0.9,0.5,1.8,0.9,2.8,1.3c1.9,0.7,4,1.2,6,1.6c4.1,0.9,8.2,1.5,12.3,2
		c4.1,0.5,8.3,1,12.5,1.4c4.2,0.4,8.3,0.8,12.5,1.1c4.2,0.4,8.4,0.7,12.5,1l12.6,0.9c8.4,0.6,16.8,1.2,25.2,2
		c-8.4,0.8-16.9,1.1-25.3,1.1c-4.2,0-8.4-0.1-12.7-0.3c-4.2-0.2-8.4-0.5-12.7-0.8c-4.2-0.4-8.4-0.8-12.6-1.4
		c-4.2-0.6-8.4-1.2-12.5-2.1c-4.2-0.8-8.3-1.9-12.4-3.2c-2-0.7-4-1.5-5.9-2.5c-0.9-0.5-1.9-1.1-2.7-1.8
		C21.5,49.8,20.7,48.9,20.8,47.8z"/>
</g>
<g>
	<path fill="#596357" d="M17.4,48.9c0.1,1.1,0.7,2,1.4,2.7c0.7,0.7,1.6,1.3,2.5,1.8c1.8,1,3.8,1.8,5.8,2.5c4,1.3,8.1,2.3,12.2,3.1
		c4.2,0.8,8.3,1.5,12.5,2.1c4.2,0.6,8.4,1.2,12.6,1.6c4.2,0.5,8.4,0.9,12.7,1.3c4.2,0.5,8.5,0.8,12.7,1.2c8.5,0.7,17,1.4,25.6,2.2
		c-8.5,0.8-17.1,1.1-25.7,0.9c-4.3,0-8.6-0.3-12.9-0.5c-4.3-0.3-8.6-0.7-12.8-1.2c-4.3-0.5-8.5-1.1-12.8-1.9
		c-4.2-0.8-8.5-1.6-12.6-2.8c-4.2-1.1-8.3-2.5-12.3-4.3c-2-0.9-3.9-2-5.6-3.4c-0.9-0.7-1.7-1.5-2.3-2.4C17.7,51.1,17.3,50,17.4,48.9
		z"/>
</g>
<text transform="matrix(1.5 0 0 1 22.68 105.6479)" fill="#504D45" font-family="'MyriadPro-Semibold'" font-size="11px" letter-spacing="2">as Forests</text>
</svg>
